HIERARCHY
ROOT hip
{
  OFFSET 0 0 0
  CHANNELS 6 Xposition Yposition Zposition Zrotation Yrotation Xrotation
  JOINT abdomen
  {
    OFFSET 0 20.6881 -0.73152
    CHANNELS 3 Zrotation Xrotation Yrotation
    JOINT chest
    {
      OFFSET 0 11.7043 -0.48768
      CHANNELS 3 Zrotation Xrotation Yrotation
      JOINT neck
      {
        OFFSET 0 22.1894 -2.19456
        CHANNELS 3 Zrotation Xrotation Yrotation
        JOINT head
        {
          OFFSET -0.24384 7.07133 1.2192
          CHANNELS 3 Zrotation Xrotation Yrotation
          JOINT leftEye
          {
            OFFSET 4.14528 8.04674 8.04672
            CHANNELS 3 Zrotation Xrotation Yrotation
            End Site
            {
              OFFSET 1 0 0
            }
          }
          JOINT rightEye
          {
            OFFSET -3.6576 8.04674 8.04672
            CHANNELS 3 Zrotation Xrotation Yrotation
            End Site
            {
              OFFSET 1 0 0
            }
          }
        }
      }
      JOINT rCollar
      {
        OFFSET -2.68224 19.2634 -4.8768
        CHANNELS 3 Zrotation Xrotation Yrotation
        JOINT rShldr
        {
          OFFSET -8.77824 -1.95073 1.46304
          CHANNELS 3 Zrotation Xrotation Yrotation
          JOINT rForeArm
          {
            OFFSET -28.1742 -1.7115 0.48768
            CHANNELS 3 Zrotation Xrotation Yrotation
            JOINT rHand
            {
              OFFSET -22.5879 0.773209 7.07136
              CHANNELS 3 Zrotation Xrotation Yrotation
              JOINT rThumb1
              {
                OFFSET -1.2192 -0.487915 3.41376
                CHANNELS 3 Zrotation Xrotation Yrotation
                JOINT rThumb2
                {
                  OFFSET -3.37035 -0.52449 3.41376
                  CHANNELS 3 Zrotation Xrotation Yrotation
                  End Site
                  {
                    OFFSET -1.78271 -1.18214 1.43049
                  }
                }
              }
              JOINT rIndex1
              {
                OFFSET -7.75947 0.938293 5.60832
                CHANNELS 3 Zrotation Xrotation Yrotation
                JOINT rIndex2
                {
                  OFFSET -2.54057 -0.884171 1.56538
                  CHANNELS 3 Zrotation Xrotation Yrotation
                  End Site
                  {
                    OFFSET -1.62519 -0.234802 1.16502
                  }
                }
              }
              JOINT rMid1
              {
                OFFSET -8.24714 1.18213 3.41376
                CHANNELS 3 Zrotation Xrotation Yrotation
                JOINT rMid2
                {
                  OFFSET -3.10165 -0.590103 1.0647
                  CHANNELS 3 Zrotation Xrotation Yrotation
                  End Site
                  {
                    OFFSET -2.48547 -0.328903 0.83742
                  }
                }
              }
              JOINT rRing1
              {
                OFFSET -8.82822 0.546677 1.51678
                CHANNELS 3 Zrotation Xrotation Yrotation
                JOINT rRing2
                {
                  OFFSET -2.60934 -0.819778 -0.0198488
                  CHANNELS 3 Zrotation Xrotation Yrotation
                  End Site
                  {
                    OFFSET -2.33842 -0.294052 0.168128
                  }
                }
              }
              JOINT rPinky1
              {
                OFFSET -8.27202 -0.0477905 -0.4584
                CHANNELS 3 Zrotation Xrotation Yrotation
                JOINT rPinky2
                {
                  OFFSET -1.82734 -0.647385 -0.700984
                  CHANNELS 3 Zrotation Xrotation Yrotation
                  End Site
                  {
                    OFFSET -1.69225 -0.51767 -0.607171
                  }
                }
              }
            }
          }
        }
      }
      JOINT lCollar
      {
        OFFSET 2.68224 19.2634 -4.8768
        CHANNELS 3 Zrotation Xrotation Yrotation
        JOINT lShldr
        {
          OFFSET 8.77824 -1.95073 1.46304
          CHANNELS 3 Zrotation Xrotation Yrotation
          JOINT lForeArm
          {
            OFFSET 28.1742 -1.7115 0.48768
            CHANNELS 3 Zrotation Xrotation Yrotation
            JOINT lHand
            {
              OFFSET 22.5879 0.773209 7.07136
              CHANNELS 3 Zrotation Xrotation Yrotation
              JOINT lThumb1
              {
                OFFSET 1.2192 -0.487915 3.41376
                CHANNELS 3 Zrotation Xrotation Yrotation
                JOINT lThumb2
                {
                  OFFSET 3.37035 -0.52449 3.41376
                  CHANNELS 3 Zrotation Xrotation Yrotation
                  End Site
                  {
                    OFFSET 1.78271 -1.18214 1.43049
                  }
                }
              }
              JOINT lIndex1
              {
                OFFSET 7.75947 0.938293 5.60832
                CHANNELS 3 Zrotation Xrotation Yrotation
                JOINT lIndex2
                {
                  OFFSET 2.54057 -0.884171 1.56538
                  CHANNELS 3 Zrotation Xrotation Yrotation
                  End Site
                  {
                    OFFSET 1.62519 -0.234802 1.16502
                  }
                }
              }
              JOINT lMid1
              {
                OFFSET 8.24714 1.18213 3.41376
                CHANNELS 3 Zrotation Xrotation Yrotation
                JOINT lMid2
                {
                  OFFSET 3.10165 -0.590103 1.0647
                  CHANNELS 3 Zrotation Xrotation Yrotation
                  End Site
                  {
                    OFFSET 2.48547 -0.328903 0.83742
                  }
                }
              }
              JOINT lRing1
              {
                OFFSET 8.82822 0.546677 1.51678
                CHANNELS 3 Zrotation Xrotation Yrotation
                JOINT lRing2
                {
                  OFFSET 2.60934 -0.819778 -0.0198488
                  CHANNELS 3 Zrotation Xrotation Yrotation
                  End Site
                  {
                    OFFSET 2.33842 -0.294052 0.168128
                  }
                }
              }
              JOINT lPinky1
              {
                OFFSET 8.27202 -0.0477905 -0.4584
                CHANNELS 3 Zrotation Xrotation Yrotation
                JOINT lPinky2
                {
                  OFFSET 1.82734 -0.647385 -0.700984
                  CHANNELS 3 Zrotation Xrotation Yrotation
                  End Site
                  {
                    OFFSET 1.69225 -0.51767 -0.607171
                  }
                }
              }
            }
          }
        }
      }
    }
  }
  JOINT rButtock
  {
    OFFSET -8.77824 4.35084 1.2192
    CHANNELS 3 Zrotation Xrotation Yrotation
    JOINT rThigh
    {
      OFFSET 0 -1.70687 -2.19456
      CHANNELS 3 Zrotation Xrotation Yrotation
      JOINT rShin
      {
        OFFSET 0 -36.8199 0.73152
        CHANNELS 3 Zrotation Xrotation Yrotation
        JOINT rFoot
        {
          OFFSET 0.73152 -45.1104 -5.12064
          CHANNELS 3 Zrotation Xrotation Yrotation
          End Site
          {
            OFFSET -1.1221 -3.69964 12.103
          }
        }
      }
    }
  }
  JOINT lButtock
  {
    OFFSET 8.77824 4.35084 1.2192
    CHANNELS 3 Zrotation Xrotation Yrotation
    JOINT lThigh
    {
      OFFSET 0 -1.70687 -2.19456
      CHANNELS 3 Zrotation Xrotation Yrotation
      JOINT lShin
      {
        OFFSET 0 -36.8199 0.73152
        CHANNELS 3 Zrotation Xrotation Yrotation
        JOINT lFoot
        {
          OFFSET -0.73152 -45.1104 -5.12064
          CHANNELS 3 Zrotation Xrotation Yrotation
          End Site
          {
            OFFSET 1.1221 -3.69964 12.103
          }
        }
      }
    }
  }
}
MOTION
Frames:	6
Frame Time:	0.00833333
-2.699 84.2564 35.6732 0.0 0.0 0.0 -1.24151 -0.00398119 -0.0340788 -0.342494 -0.00249266 -0.0593271 -1.16694e-14 0.0 8.69683e-16 -3.48246e-14 3.18055e-15 2.63079e-15 -0.0 0.0 0.0 -0.0 0.0 0.0 -5.76638e-15 -1.82478e-17 5.46658e-16 -1.20122e-13 -4.78326e-16 9.54166e-15 -2.08858e-12 6.09673e-13 2.00375e-13 -2.39183e-11 -6.83844e-13 1.74931e-12 -5.64134e-11 -1.59845e-13 4.2524e-12 -9.74375e-11 -2.73528e-13 7.34629e-12 -5.64119e-11 -1.61016e-13 4.24604e-12 7.73091 5.47488 0.417314 -5.64132e-11 -1.60121e-13 4.25876e-12 2.90554 0.965183 0.102902 -5.64124e-11 -1.59525e-13 4.25479e-12 10.2786 0.731801 0.0259123 -5.64201e-11 -1.58233e-13 4.2683e-12 2.22167 -0.733487 -0.20892 -5.86291e-15 -1.74713e-17 2.48481e-16 -1.2326e-13 -2.91965e-16 7.95139e-15 -2.09449e-12 -6.30346e-13 1.97194e-13 -2.3909e-11 5.5943e-13 1.77475e-12 -5.64019e-11 -1.55717e-13 4.25876e-12 -9.7391e-11 -2.73528e-13 7.36139e-12 -5.64071e-11 -1.55847e-13 4.2683e-12 -7.73091 5.47488 -0.417314 -5.64023e-11 -1.55549e-13 4.25558e-12 -2.90554 0.965183 -0.102902 -5.64105e-11 -1.55748e-13 4.26035e-12 -10.2786 0.731801 -0.0259123 -5.63958e-11 -1.55052e-13 4.24922e-12 -2.22167 -0.733487 0.20892 -2.03217e-16 0.0 -3.88251e-19 -0.453841 -1.92099 -0.0095271 -0.0091556 -2.07857 -0.0755521 -0.487452 3.99699 0.136653 2.03217e-16 0.0 3.88251e-19 -1.43728 -5.97115 0.129663 -0.00126418 5.25795 -0.0454133 0.507827 0.710745 -0.0722755
-4.39288 83.7281 34.3966 -2.0028 -4.581 2.8946 -0.760495 -0.430277 0.449064 -0.00693944 -0.320291 0.0889769 -0.544323 1.14228 -0.405813 1.03391 2.64858 -0.788313 -0.0 0.0 0.0 -0.0 0.0 0.0 -6.07017e-15 2.38834e-15 -4.83629e-14 22.602 7.82565 -3.12888 -6.33279 -3.47635 9.15436 0.0834622 6.41585 0.881401 1.76061e-10 -2.26914e-10 4.44265e-11 3.04978e-10 -3.88886e-10 7.2336e-11 1.76065e-10 -2.26915e-10 4.44203e-11 7.73091 5.47488 0.417314 1.7606e-10 -2.26913e-10 4.4429e-11 2.90554 0.965183 0.102902 1.76063e-10 -2.26913e-10 4.44255e-11 10.2786 0.731801 0.0259123 1.76055e-10 -2.26912e-10 4.44366e-11 2.22167 -0.733487 -0.20892 -6.1749e-15 2.3889e-15 -4.8618e-14 -23.0638 9.1142 1.62913 5.42411 -2.76373 -8.12184 -0.00281714 1.17738 -0.165344 3.01267e-11 9.83161e-11 -2.11644e-11 5.18682e-11 1.69689e-10 -3.67321e-11 3.01202e-11 9.83153e-11 -2.11529e-11 -7.73091 5.47488 -0.417314 3.01264e-11 9.83149e-11 -2.11669e-11 -2.90554 0.965183 -0.102902 3.01182e-11 9.83143e-11 -2.11631e-11 -10.2786 0.731801 -0.0259123 3.01338e-11 9.83147e-11 -2.11744e-11 -2.22167 -0.733487 0.20892 -2.03217e-16 0.0 -3.88251e-19 -6.24055 -2.18599 -0.0103576 -0.00638727 -1.70485 -0.0554463 -0.23242 3.88654 0.0976069 2.03217e-16 0.0 3.88251e-19 1.15087 -6.99356 -1.46774 -0.0198455 9.84983 -0.183632 0.859339 -4.88634 4.69367
-4.38768 83.7288 34.4028 -1.9883 -4.5559 2.874 -0.24799 -0.884815 0.957517 0.353923 -0.647563 0.245095 -1.10312 2.34665 -0.834018 2.20514 5.44598 -1.62424 -0.0 0.0 0.0 -0.0 0.0 0.0 -5.29481e-15 3.13405e-15 -1.00716e-13 47.452 16.023 -6.62845 -11.8331 -6.85429 18.9361 -0.0482018 13.1922 1.85053 4.15248e-10 -4.55802e-10 8.1202e-11 7.18943e-10 -7.81066e-10 1.31363e-10 4.15254e-10 -4.55803e-10 8.11962e-11 7.73091 5.47488 0.417314 4.15246e-10 -4.55799e-10 8.12002e-11 2.90554 0.965183 0.102902 4.15251e-10 -4.558e-10 8.11972e-11 10.2786 0.731801 0.0259123 4.15242e-10 -4.55799e-10 8.12057e-11 2.22167 -0.733487 -0.20892 -5.40886e-15 3.13438e-15 -1.00924e-13 -48.0372 18.7204 3.48725 10.3147 -5.50002 -16.7673 0.00160019 2.42239 -0.340421 1.1333e-10 1.84663e-10 -6.27957e-11 1.95274e-10 3.18631e-10 -1.08826e-10 1.13323e-10 1.84662e-10 -6.27822e-11 -7.73091 5.47488 -0.417314 1.1333e-10 1.84661e-10 -6.27977e-11 -2.90554 0.965183 -0.102902 1.13322e-10 1.8466e-10 -6.27947e-11 -10.2786 0.731801 -0.0259123 1.13338e-10 1.84659e-10 -6.28066e-11 -2.22167 -0.733487 0.20892 -2.03217e-16 0.0 -3.88251e-19 -12.3579 -2.46606 -0.0112356 -0.0037463 -1.30981 -0.0342047 0.0369868 3.76973 0.0563459 2.03217e-16 0.0 3.88251e-19 3.82347 -8.06836 -3.16436 -0.014529 14.7033 -0.335344 2.25465 -10.6796 9.8701
-4.38804 83.7275 34.4025 -1.9966 -4.5335 2.8788 0.223105 -1.28252 1.41567 0.669105 -0.955867 0.385634 -1.58436 3.42616 -1.21938 3.32212 7.9397 -2.38529 -0.0 0.0 0.0 -0.0 0.0 0.0 -6.67777e-15 7.2015e-15 -1.46182e-13 70.548 23.1844 -10.1243 -15.7709 -9.36583 27.8143 -0.37132 19.2288 2.78301 6.4101e-10 -6.80423e-10 1.24775e-10 1.10981e-09 -1.16611e-09 2.02315e-10 6.41019e-10 -6.80424e-10 1.24769e-10 7.73091 5.47488 0.417314 6.41007e-10 -6.80419e-10 1.24769e-10 2.90554 0.965183 0.102902 6.41014e-10 -6.8042e-10 1.24767e-10 10.2786 0.731801 0.0259123 6.41004e-10 -6.80419e-10 1.24773e-10 2.22167 -0.733487 -0.20892 -6.79888e-15 7.20163e-15 -1.46351e-13 -70.9088 27.2484 5.42973 13.9831 -7.62619 -24.5685 0.0119676 3.53204 -0.496872 2.03184e-10 2.9526e-10 -7.20106e-11 3.50387e-10 5.09614e-10 -1.24919e-10 2.03175e-10 2.95257e-10 -7.19954e-11 -7.73091 5.47488 -0.417314 2.03184e-10 2.95256e-10 -7.20118e-11 -2.90554 0.965183 -0.102902 2.03175e-10 2.95254e-10 -7.20099e-11 -10.2786 0.731801 -0.0259123 2.03193e-10 2.95254e-10 -7.20217e-11 -2.22167 -0.733487 0.20892 -2.03217e-16 0.0 -3.88251e-19 -17.814 -2.71601 -0.0120203 -0.00163747 -0.957398 -0.0152626 0.277191 3.66562 0.0195468 2.03217e-16 0.0 3.88251e-19 6.15444 -9.01543 -4.68639 0.0131213 19.0331 -0.478491 4.41275 -15.6258 14.7303
-4.3871 83.726 34.3809 -2.0073 -4.5045 2.8874 0.575293 -1.53847 1.74775 0.866857 -1.21677 0.487185 -1.90558 4.19417 -1.49581 4.1488 9.67988 -2.93996 -0.0 0.0 0.0 -0.0 0.0 0.0 -1.34566e-14 1.95733e-14 -1.74434e-13 87.2697 28.0306 -12.9126 -18.0351 -10.7245 34.099 -0.724535 23.4339 3.49241 8.3321e-10 -8.94375e-10 1.8534e-10 1.44292e-09 -1.53331e-09 3.03083e-10 8.33219e-10 -8.94376e-10 1.85334e-10 7.73091 5.47488 0.417314 8.33207e-10 -8.94372e-10 1.85334e-10 2.90554 0.965183 0.102902 8.33214e-10 -8.94372e-10 1.85332e-10 10.2786 0.731801 0.0259123 8.33203e-10 -8.94372e-10 1.85337e-10 2.22167 -0.733487 -0.20892 -1.3579e-14 1.95733e-14 -1.74583e-13 -87.2768 33.168 7.07959 16.1856 -8.86074 -30.0654 0.0227674 4.30343 -0.605958 3.09662e-10 4.66479e-10 -1.84472e-13 5.34767e-10 8.05698e-10 -1.01062e-12 3.09652e-10 4.66476e-10 -1.68569e-13 -7.73091 5.47488 -0.417314 3.09662e-10 4.66475e-10 -1.84472e-13 -2.90554 0.965183 -0.102902 3.09654e-10 4.66473e-10 -1.83677e-13 -10.2786 0.731801 -0.0259123 3.09672e-10 4.66473e-10 -1.94014e-13 -2.22167 -0.733487 0.20892 -2.03217e-16 0.0 -3.88251e-19 -21.6168 -2.89068 -0.0125709 -0.000304168 -0.711534 -0.0020521 0.444707 3.59327 -0.00611937 2.03217e-16 0.0 3.88251e-19 7.75378 -9.66177 -5.75356 0.0459975 22.0545 -0.584396 6.4438 -18.8915 18.3091
-4.37859 83.7268 34.3713 -1.9866 -4.4812 2.8681 0.761335 -1.58872 1.90708 0.890926 -1.4253 0.535183 -2.01755 4.53175 -1.62102 4.50132 10.3719 -3.19754 -0.0 0.0 0.0 -0.0 0.0 0.0 -3.09207e-14 5.14497e-14 -1.79785e-13 94.0431 29.8404 -14.1845 -18.8321 -11.1583 36.5917 -0.895397 25.0919 3.78956 1.0157e-09 -1.14041e-09 2.85827e-10 1.75987e-09 -1.95628e-09 4.72598e-10 1.01571e-09 -1.14041e-09 2.85819e-10 7.73091 5.47488 0.417314 1.0157e-09 -1.14041e-09 2.85824e-10 2.90554 0.965183 0.102902 1.01571e-09 -1.14041e-09 2.85821e-10 10.2786 0.731801 0.0259123 1.0157e-09 -1.14041e-09 2.85828e-10 2.22167 -0.733487 -0.20892 -3.10361e-14 5.14497e-14 -1.79942e-13 -93.8321 35.517 7.90831 16.977 -9.27977 -32.2339 0.0276893 4.5964 -0.647477 4.5978e-10 7.79333e-10 2.30315e-10 7.95583e-10 1.34722e-09 3.97033e-10 4.5977e-10 7.7933e-10 2.3033e-10 -7.73091 5.47488 -0.417314 4.5978e-10 7.79328e-10 2.30317e-10 -2.90554 0.965183 -0.102902 4.59773e-10 7.79327e-10 2.30316e-10 -10.2786 0.731801 -0.0259123 4.59791e-10 7.79329e-10 2.3031e-10 -2.22167 -0.733487 0.20892 -2.03217e-16 0.0 -3.88251e-19 -23.1051 -2.96012 -0.0127932 0.000190021 -0.614748 0.00314598 0.510732 3.56547 -0.0162265 2.03217e-16 0.0 3.88251e-19 8.38744 -9.89477 -6.17366 0.0615174 23.2459 -0.627859 7.3559 -20.1263 19.7531
